<?xml version="1.0" encoding="UTF-8" standalone="no"?>
<svg
   xmlns:dc="http://purl.org/dc/elements/1.1/"
   xmlns:cc="http://creativecommons.org/ns#"
   xmlns:rdf="http://www.w3.org/1999/02/22-rdf-syntax-ns#"
   xmlns:svg="http://www.w3.org/2000/svg"
   xmlns="http://www.w3.org/2000/svg"
   xmlns:sodipodi="http://sodipodi.sourceforge.net/DTD/sodipodi-0.dtd"
   xmlns:inkscape="http://www.inkscape.org/namespaces/inkscape"
   version="1.1"
   id="svg10"
   width="666.66669"
   height="666.66669"
   viewBox="0 0 666.66669 666.66669"
   sodipodi:docname="moomin.svg"
   inkscape:version="1.0.2-2 (e86c870879, 2021-01-15)">
  <metadata
     id="metadata16">
    <rdf:RDF>
      <cc:Work
         rdf:about="">
        <dc:format>image/svg+xml</dc:format>
        <dc:type
           rdf:resource="http://purl.org/dc/dcmitype/StillImage" />
        <dc:title></dc:title>
      </cc:Work>
    </rdf:RDF>
  </metadata>
  <defs
     id="defs14" />
  <sodipodi:namedview
     pagecolor="#ffffff"
     bordercolor="#666666"
     borderopacity="1"
     objecttolerance="10"
     gridtolerance="10"
     guidetolerance="10"
     inkscape:pageopacity="0"
     inkscape:pageshadow="2"
     inkscape:window-width="1600"
     inkscape:window-height="837"
     id="namedview12"
     showgrid="false"
     inkscape:zoom="1.005"
     inkscape:cx="333.33334"
     inkscape:cy="333.33334"
     inkscape:window-x="-8"
     inkscape:window-y="-8"
     inkscape:window-maximized="1"
     inkscape:current-layer="g18" />
  <g
     inkscape:groupmode="layer"
     inkscape:label="Image"
     id="g18">
    <g
       id="g22"
       transform="translate(2.9850754,-3.9800996)">
      <path
         style="fill:#d0d0d0;fill-opacity:1;stroke-width:1.33333"
         d="m 143.17289,618.09418 c 0.96249,-0.38516 2.11249,-0.3378 2.55556,0.1052 0.44305,0.44306 -0.34445,0.75819 -1.75,0.7003 -1.55327,-0.064 -1.8692,-0.37992 -0.80556,-0.80555 z m 42.66667,-5.33333 c 0.96249,-0.38516 2.11249,-0.3378 2.55556,0.1052 0.44305,0.44305 -0.34445,0.75819 -1.75,0.70029 -1.55327,-0.064 -1.8692,-0.37992 -0.80556,-0.80554 z m -37.83388,-19.42252 -3.91612,-4.33333 4.33333,3.91612 c 4.03928,3.65037 4.9462,4.75054 3.91612,4.75054 -0.22947,0 -2.17947,-1.95 -4.33333,-4.33333 z m -50.166124,-1.91081 c 0.9625,-0.38516 2.1125,-0.3378 2.555554,0.1052 0.44306,0.44305 -0.34444,0.75818 -1.749998,0.70029 -1.553257,-0.064 -1.8692,-0.37992 -0.805556,-0.80555 z m 283.176614,-9.08919 c 0.0272,-2.2 0.326,-2.93859 0.66405,-1.64129 0.33805,1.29729 0.31583,3.09729 -0.0495,4 -0.36524,0.9027 -0.64182,-0.15871 -0.61465,-2.35871 z m -96.25994,-6.50341 c 0,-0.27687 1.05,-1.32687 2.33333,-2.33334 2.11475,-1.65849 2.16191,-1.61133 0.50342,0.50342 -1.74183,2.221 -2.83675,2.9273 -2.83675,1.82992 z m 77.4386,-21.6077 c 0.064,-1.55327 0.37992,-1.8692 0.80555,-0.80556 0.38516,0.96249 0.3378,2.11251 -0.1052,2.55556 -0.44305,0.44305 -0.75819,-0.34445 -0.70029,-1.75 z M 254.30008,523.00499 c 0,-1.83333 0.30264,-2.58333 0.67252,-1.66666 0.36988,0.91666 0.36988,2.41666 0,3.33333 -0.36988,0.91667 -0.67252,0.16667 -0.67252,-1.66667 z m -4.10525,-8.77777 c 0.064,-1.55327 0.37992,-1.8692 0.80554,-0.80556 0.38516,0.96249 0.3378,2.11251 -0.1052,2.55556 -0.44306,0.44305 -0.75818,-0.34445 -0.70029,-1.75 z m 8,-1.33333 c 0.064,-1.55327 0.37992,-1.8692 0.80555,-0.80556 0.38516,0.96249 0.3378,2.1125 -0.1052,2.55556 -0.44307,0.44305 -0.75819,-0.34446 -0.7003,-1.75 z m -1.17867,-51.8889 c 0.0272,-2.2 0.326,-2.93859 0.66405,-1.64129 0.33806,1.29729 0.31583,3.09729 -0.0495,4 -0.36524,0.9027 -0.64183,-0.15871 -0.61466,-2.35871 z m -6.61727,-18 c 0,-2.56667 0.2744,-3.61667 0.60978,-2.33333 0.33536,1.28333 0.33536,3.38333 0,4.66666 -0.33538,1.28334 -0.60978,0.23334 -0.60978,-2.33333 z m -0.20406,-12.77777 c 0.064,-1.55327 0.37992,-1.8692 0.80554,-0.80556 0.38516,0.96249 0.3378,2.1125 -0.1052,2.55556 -0.44306,0.44305 -0.75818,-0.34446 -0.70029,-1.75 z m 9.33333,-4 c 0.064,-1.55327 0.37992,-1.8692 0.80555,-0.80556 0.38516,0.96249 0.3378,2.1125 -0.1052,2.55556 -0.44307,0.44305 -0.75819,-0.34446 -0.70029,-1.75 z m 176.97807,-78.79971 c 0.9625,-0.38516 2.11251,-0.3378 2.55556,0.1052 0.44306,0.44305 -0.34445,0.75818 -1.75,0.70029 -1.55326,-0.064 -1.8692,-0.37992 -0.80556,-0.80555 z m 2.66667,-6.66667 c 0.96249,-0.38516 2.11251,-0.3378 2.55556,0.1052 0.44305,0.44305 -0.34445,0.75819 -1.75,0.70029 -1.55327,-0.064 -1.8692,-0.37992 -0.80556,-0.80554 z m 86.91667,-28.92593 c 0,-0.27687 1.05,-1.32687 2.33333,-2.33334 2.11475,-1.65849 2.16191,-1.61133 0.50342,0.50342 -1.74183,2.221 -2.83675,2.9273 -2.83675,1.82992 z m 24.10527,-46.94103 c 0.064,-1.55327 0.37992,-1.8692 0.80555,-0.80556 0.38516,0.96249 0.3378,2.11249 -0.1052,2.55556 -0.44306,0.44305 -0.75819,-0.34446 -0.7003,-1.75 z M 312.96675,232.33832 c 0,-1.83334 0.30264,-2.58334 0.67252,-1.66667 0.36988,0.91667 0.36988,2.41667 0,3.33333 -0.36988,0.91667 -0.67252,0.16667 -0.67252,-1.66666 z m 101.7056,-115.00001 -3.91612,-4.33333 4.33334,3.91612 c 4.03928,3.65038 4.9462,4.75055 3.91612,4.75055 -0.22947,0 -2.17947,-1.95 -4.33334,-4.33334 z M 336.8615,103.56053 c 0.064,-1.55325 0.37992,-1.8692 0.80554,-0.80555 0.38516,0.9625 0.3378,2.1125 -0.1052,2.55555 -0.44305,0.44306 -0.75818,-0.34444 -0.70029,-1.75 z m 58.66667,-1.33333 c 0.064,-1.55326 0.37992,-1.8692 0.80554,-0.80555 0.38516,0.9625 0.3378,2.1125 -0.1052,2.55555 -0.44305,0.44306 -0.75818,-0.34444 -0.70029,-1.75 z M 330.19483,91.560534 c 0.064,-1.553257 0.37992,-1.8692 0.80555,-0.805556 0.38516,0.9625 0.3378,2.1125 -0.1052,2.555556 -0.44306,0.443055 -0.75819,-0.344445 -0.7003,-1.75 z m 6.89764,-9.222223 c 0.0148,-2.933333 0.28785,-3.976337 0.60677,-2.317788 0.31892,1.658551 0.30682,4.058551 -0.0269,5.333334 -0.33372,1.274784 -0.59467,-0.08221 -0.57987,-3.015546 z m -0.23097,-9.444444 c 0.064,-1.553257 0.37992,-1.8692 0.80554,-0.805556 0.38516,0.9625 0.3378,2.1125 -0.1052,2.555556 -0.44305,0.443055 -0.75818,-0.344445 -0.70029,-1.75 z m -4,-5.333334 c 0.064,-1.553257 0.37992,-1.8692 0.80554,-0.805556 0.38516,0.9625 0.3378,2.112501 -0.1052,2.555557 -0.44305,0.443054 -0.75818,-0.344446 -0.70029,-1.750001 z m 56,-4 c 0.064,-1.553257 0.37992,-1.8692 0.80555,-0.805556 0.38516,0.9625 0.3378,2.1125 -0.1052,2.555556 -0.44306,0.443055 -0.75819,-0.344445 -0.7003,-1.75 z"
         id="path38" />
      <path
         style="fill:#b9b9b9;fill-opacity:1;stroke-width:1.33333"
         d="m 112.29557,626.67166 c 0.33992,-0.55 3.28263,-1 6.53935,-1 3.25672,0 5.9213,0.45 5.9213,1 0,0.55 -2.9427,1 -6.53934,1 -3.59664,0 -6.26123,-0.45 -5.92131,-1 z m 241.46066,0.78363 c 0.91667,-0.36988 2.41667,-0.36988 3.33334,0 0.91666,0.36988 0.16666,0.67252 -1.66667,0.67252 -1.83333,0 -2.58334,-0.30264 -1.66667,-0.67252 z m -235.30797,-5.37428 c 1.2973,-0.33805 3.0973,-0.31583 4,0.0495 0.90271,0.36524 -0.1587,0.64182 -2.3587,0.61465 -2.2,-0.0272 -2.93859,-0.326 -1.6413,-0.66405 z m -14.02537,-1.29239 c 0.91667,-0.36988 2.41667,-0.36988 3.33333,0 0.91667,0.36988 0.16667,0.67252 -1.66666,0.67252 -1.83334,0 -2.58334,-0.30264 -1.66667,-0.67252 z m 338.75001,-1.3611 c 0.96249,-0.38516 2.11251,-0.3378 2.55556,0.1052 0.44305,0.44305 -0.34445,0.75818 -1.75,0.70029 -1.55327,-0.064 -1.8692,-0.37992 -0.80556,-0.80555 z m -275.3913,-5.34651 c 1.29729,-0.33805 3.09729,-0.31583 4,0.0495 0.90271,0.36524 -0.15871,0.64182 -2.35871,0.61465 -2.2,-0.0272 -2.93858,-0.326 -1.64129,-0.66405 z M 96.089556,596.33833 c -0.453225,-0.73333 -0.188635,-1.33333 0.587977,-1.33333 0.776612,0 1.412023,0.6 1.412023,1.33333 0,0.73333 -0.264589,1.33333 -0.587977,1.33333 -0.323388,0 -0.958798,-0.6 -1.412023,-1.33333 z m 262.210534,-4 c 0,-1.83333 0.30264,-2.58333 0.67252,-1.66667 0.36988,0.91667 0.36988,2.41667 0,3.33334 -0.36988,0.91666 -0.67252,0.16666 -0.67252,-1.66667 z M 93.839556,591.42752 c 0.9625,-0.38516 2.1125,-0.3378 2.555556,0.1052 0.443055,0.44305 -0.344445,0.75818 -1.75,0.70029 -1.553257,-0.064 -1.8692,-0.37992 -0.805556,-0.80555 z M 380.8615,587.56056 c 0.064,-1.55327 0.37992,-1.8692 0.80555,-0.80556 0.38516,0.96249 0.3378,2.1125 -0.1052,2.55556 -0.44306,0.44305 -0.75819,-0.34446 -0.7003,-1.75 z m -125.43861,-15.8889 c 1.72234,-1.83333 3.43151,-3.33333 3.79818,-3.33333 0.36667,0 -0.74251,1.5 -2.46484,3.33333 -1.72234,1.83334 -3.43151,3.33334 -3.79818,3.33334 -0.36666,0 0.74251,-1.5 2.46484,-3.33334 z m 115.66668,-6.88304 c 0.91666,-0.36988 2.41666,-0.36988 3.33333,0 0.91667,0.36988 0.16667,0.67252 -1.66667,0.67252 -1.83333,0 -2.58333,-0.30264 -1.66666,-0.67252 z m 5.41666,-5.36111 c 0.9625,-0.38516 2.11251,-0.3378 2.55556,0.1052 0.44306,0.44306 -0.34445,0.75819 -1.75,0.7003 -1.55326,-0.064 -1.8692,-0.37992 -0.80556,-0.80555 z m 85.58334,-20.92593 c 0,-0.27687 1.05,-1.32687 2.33333,-2.33333 2.11475,-1.6585 2.16191,-1.61134 0.50342,0.50341 -1.74183,2.221 -2.83675,2.92731 -2.83675,1.82992 z M 254.94072,481.00499 c 0.42212,-1.1 1.00328,-2 1.29149,-2 0.2882,0 0.52402,0.9 0.52402,2 0,1.1 -0.58118,2 -1.2915,2 -0.7103,0 -0.94612,-0.9 -0.52401,-2 z m 2.02603,-14 c 0,-1.83333 0.30264,-2.58333 0.67252,-1.66667 0.36988,0.91667 0.36988,2.41667 0,3.33334 -0.36988,0.91666 -0.67252,0.16666 -0.67252,-1.66667 z m 249.54958,-21.33333 c 0,-4.76667 0.242,-6.71667 0.53777,-4.33334 0.29576,2.38334 0.29576,6.28334 0,8.66667 -0.29577,2.38333 -0.53777,0.43333 -0.53777,-4.33333 z M 260.8615,414.22722 c 0.064,-1.55327 0.37992,-1.8692 0.80554,-0.80556 0.38516,0.96249 0.3378,2.1125 -0.1052,2.55556 -0.44306,0.44305 -0.75818,-0.34446 -0.70029,-1.75 z m -8.00001,-13.33334 c 0.064,-1.55326 0.37992,-1.8692 0.80555,-0.80556 0.38516,0.9625 0.3378,2.11251 -0.1052,2.55556 -0.44307,0.44306 -0.75819,-0.34445 -0.70029,-1.75 z M 403.1729,238.09417 c 0.96249,-0.38516 2.11251,-0.3378 2.55556,0.1052 0.44305,0.44305 -0.34445,0.75819 -1.75,0.70029 -1.55327,-0.064 -1.8692,-0.37992 -0.80556,-0.80554 z m 84,-25.33333 c 0.9625,-0.38516 2.11251,-0.3378 2.55556,0.1052 0.44306,0.44305 -0.34445,0.75818 -1.75,0.70029 -1.55326,-0.064 -1.8692,-0.37992 -0.80556,-0.80555 z M 337.01616,95.671645 c 0.0272,-2.2 0.326,-2.938581 0.66406,-1.641291 0.33805,1.29729 0.31582,3.09729 -0.0495,4.000001 -0.36517,0.902709 -0.64176,-0.15871 -0.61459,-2.35871 z m 36.82341,1.089182 c 0.96249,-0.385162 2.1125,-0.337793 2.55556,0.105266 0.44305,0.443056 -0.34446,0.758188 -1.75,0.700294 -1.55327,-0.06397 -1.8692,-0.379922 -0.80556,-0.805556 z m 21.84326,-3.755849 c 0.0272,-2.2 0.326,-2.938581 0.66406,-1.64129 0.33805,1.297289 0.31582,3.097289 -0.0495,4 -0.36517,0.902709 -0.64176,-0.15871 -0.61459,-2.35871 z M 330.3989,85.671645 c 0,-2.566667 0.2744,-3.616667 0.60977,-2.333334 0.33536,1.283334 0.33536,3.383334 0,4.666667 -0.33537,1.283334 -0.60977,0.233334 -0.60977,-2.333333 z m 69.12927,-0.777778 c 0.064,-1.553257 0.37992,-1.8692 0.80554,-0.805556 0.38516,0.9625 0.3378,2.1125 -0.1052,2.555556 -0.44305,0.443055 -0.75818,-0.344445 -0.70029,-1.75 z"
         id="path36" />
      <path
         style="fill:#a3a3a3;fill-opacity:1;stroke-width:1.33333"
         d="m 384.17529,621.28082 c 0.5007,-1.31496 1.24625,-2.05496 1.65677,-1.64444 0.41052,0.41052 8.5e-4,1.48639 -0.91037,2.39084 -1.31683,1.30702 -1.46998,1.15387 -0.7464,-0.7464 z m -282.7524,-0.94249 c -0.45323,-0.73333 -0.18864,-1.33333 0.58798,-1.33333 0.77661,0 1.41202,0.6 1.41202,1.33333 0,0.73333 -0.26459,1.33333 -0.58798,1.33333 -0.32339,0 -0.9588,-0.6 -1.41202,-1.33333 z m 345.75001,-0.91081 c 0.96249,-0.38516 2.11251,-0.3378 2.55556,0.1052 0.44306,0.44305 -0.34445,0.75818 -1.75,0.70029 -1.55327,-0.064 -1.8692,-0.37992 -0.80556,-0.80555 z m -66.10733,-25.75586 c 0,-2.56666 0.2744,-3.61666 0.60977,-2.33333 0.33536,1.28333 0.33536,3.38333 0,4.66667 -0.33537,1.28333 -0.60977,0.23333 -0.60977,-2.33334 z m -0.20407,-19.44444 c 0.064,-1.55326 0.37992,-1.8692 0.80555,-0.80556 0.38516,0.9625 0.3378,2.11251 -0.1052,2.55556 -0.44306,0.44306 -0.75819,-0.34445 -0.7003,-1.75 z m 89.89474,-35.22223 c 1.32732,-1.46666 2.7133,-2.66666 3.07997,-2.66666 0.36667,0 -0.41932,1.2 -1.74664,2.66666 -1.32732,1.46667 -2.71331,2.66667 -3.07997,2.66667 -0.36667,0 0.41932,-1.2 1.74664,-2.66667 z m 4.66666,-4.50341 c 0,-0.27687 1.05,-1.32687 2.33334,-2.33333 2.11474,-1.6585 2.1619,-1.61134 0.50341,0.50341 -1.74183,2.221 -2.83675,2.92731 -2.83675,1.82992 z M 250.30008,521.67166 c 0,-1.83333 0.30264,-2.58333 0.67252,-1.66667 0.36988,0.91667 0.36988,2.41667 0,3.33334 -0.36988,0.91666 -0.67252,0.16666 -0.67252,-1.66667 z m -5.43859,-68.77778 c 0.064,-1.55326 0.37992,-1.8692 0.80555,-0.80556 0.38516,0.9625 0.3378,2.11251 -0.1052,2.55556 -0.44307,0.44306 -0.75819,-0.34445 -0.70029,-1.75 z m 5.33334,-29.33333 c 0.064,-1.55327 0.37992,-1.8692 0.80554,-0.80556 0.38516,0.96249 0.3378,2.11251 -0.1052,2.55556 -0.44306,0.44305 -0.75818,-0.34445 -0.70029,-1.75 z m 199.64474,-77.46638 c 0.96249,-0.38516 2.11251,-0.3378 2.55556,0.1052 0.44305,0.44306 -0.34445,0.75819 -1.75,0.7003 -1.55327,-0.064 -1.8692,-0.37992 -0.80556,-0.80555 z M 389.91949,232.67165 c -1.6585,-2.11475 -1.61134,-2.16191 0.50341,-0.50341 2.221,1.74182 2.92731,2.83674 1.82992,2.83674 -0.27687,0 -1.32687,-1.05 -2.33333,-2.33333 z m -7.72466,-22.44444 c 0.064,-1.55327 0.37992,-1.8692 0.80555,-0.80556 0.38516,0.96249 0.3378,2.11249 -0.1052,2.55556 -0.44305,0.44305 -0.75819,-0.34445 -0.70029,-1.75 z m 10.66667,-6.66667 c 0.064,-1.55326 0.37992,-1.8692 0.80555,-0.80556 0.38516,0.9625 0.3378,2.1125 -0.1052,2.55556 -0.44306,0.44306 -0.75819,-0.34445 -0.7003,-1.75 z M 387.63342,91.004978 c 0,-1.833333 0.30264,-2.583333 0.67252,-1.666666 0.36988,0.916666 0.36988,2.416666 0,3.333333 -0.36988,0.916667 -0.67252,0.166667 -0.67252,-1.666667 z M 336.8615,90.227201 c 0.064,-1.553257 0.37992,-1.8692 0.80554,-0.805556 0.38516,0.9625 0.3378,2.1125 -0.1052,2.555556 -0.44305,0.443055 -0.75818,-0.344445 -0.70029,-1.75 z m -12,-2.666667 c 0.064,-1.553257 0.37992,-1.8692 0.80554,-0.805556 0.38516,0.9625 0.3378,2.1125 -0.1052,2.555556 -0.44305,0.443055 -0.75818,-0.344445 -0.70029,-1.75 z m 64,-17.333334 c 0.064,-1.553257 0.37992,-1.8692 0.80555,-0.805556 0.38516,0.9625 0.3378,2.1125 -0.1052,2.555556 -0.44306,0.443055 -0.75819,-0.344445 -0.7003,-1.75 z"
         id="path34" />
      <path
         style="fill:#8c8c8c;fill-opacity:1;stroke-width:1.33333"
         d="m 133.83956,630.09418 c 0.96249,-0.38516 2.11249,-0.3378 2.55556,0.1052 0.44305,0.44306 -0.34446,0.75819 -1.75,0.7003 -1.55327,-0.064 -1.8692,-0.37992 -0.80556,-0.80555 z m 228.60871,-2.67984 c 1.2973,-0.33805 3.0973,-0.31582 4,0.0495 0.90271,0.36524 -0.1587,0.64183 -2.3587,0.61465 -2.2,-0.0272 -2.93859,-0.326 -1.6413,-0.66405 z m 89.33334,-8 c 1.29729,-0.33805 3.09729,-0.31582 4,0.0495 0.90271,0.36524 -0.15871,0.64183 -2.35871,0.61465 -2.2,-0.0272 -2.93858,-0.326 -1.64129,-0.66405 z m 1.97463,-3.95905 c 0.91666,-0.36988 2.41666,-0.36988 3.33333,0 0.91667,0.36988 0.16667,0.67252 -1.66667,0.67252 -1.83333,0 -2.58333,-0.30264 -1.66666,-0.67252 z m -283.33335,-9.3694 c 1.28334,-0.33536 3.38334,-0.33536 4.66667,0 1.28333,0.33537 0.23333,0.60977 -2.33333,0.60977 -2.56667,0 -3.61667,-0.2744 -2.33334,-0.60977 z M 99.089556,576.78862 c 0.916664,-0.36988 2.416664,-0.36988 3.333334,0 0.91667,0.36988 0.16667,0.67252 -1.66667,0.67252 -1.833331,0 -2.583331,-0.30264 -1.666664,-0.67252 z m 163.105274,-62.5614 c 0.064,-1.55327 0.37992,-1.8692 0.80555,-0.80556 0.38516,0.96249 0.3378,2.11251 -0.1052,2.55556 -0.44307,0.44305 -0.75819,-0.34445 -0.7003,-1.75 z m 48,-32 c 0.064,-1.55327 0.37992,-1.8692 0.80555,-0.80556 0.38516,0.96249 0.3378,2.11251 -0.1052,2.55556 -0.44307,0.44305 -0.75819,-0.34445 -0.7003,-1.75 z m -65.10236,-35.8889 c 0.0148,-2.93333 0.28785,-3.97633 0.60677,-2.31778 0.31892,1.65854 0.30681,4.05854 -0.0269,5.33333 -0.33372,1.27479 -0.59467,-0.0823 -0.57987,-3.01555 z m 0.0269,-12.66666 c 0,-3.3 0.26003,-4.65 0.57783,-3 0.31781,1.65 0.31781,4.35 0,6 -0.3178,1.65 -0.57783,0.3 -0.57783,-3 z m 208.72017,-87.57749 c 0.96249,-0.38516 2.11251,-0.3378 2.55556,0.1052 0.44305,0.44306 -0.34445,0.75819 -1.75,0.7003 -1.55327,-0.064 -1.8692,-0.37992 -0.80556,-0.80555 z m -94.51759,-33.42252 -3.23241,-3.66666 3.66666,3.23241 c 3.42706,3.02119 4.27812,4.10092 3.23242,4.10092 -0.23883,0 -1.88883,-1.65 -3.66667,-3.66667 z m -18.35523,-211 c 0,-1.833338 0.30264,-2.583338 0.67252,-1.66667 0.36988,0.91667 0.36988,2.41667 0,3.33333 -0.36988,0.91667 -0.67252,0.16667 -0.67252,-1.66666 z m 52.34227,-1.5176 c -0.57505,-0.930461 -0.38896,-1.205203 0.46065,-0.680109 0.78402,0.484543 1.72935,0.127254 2.10075,-0.793988 0.48333,-1.198856 0.70521,-1.223585 0.78055,-0.087 0.1521,2.294507 -2.20747,3.396717 -3.34195,1.561097 z"
         id="path32" />
      <path
         style="fill:#767676;fill-opacity:1;stroke-width:1.33333"
         d="m 359.08957,623.45529 c 0.91666,-0.36988 2.41666,-0.36988 3.33333,0 0.91667,0.36988 0.16667,0.67252 -1.66667,0.67252 -1.83333,0 -2.58333,-0.30264 -1.66666,-0.67252 z m 8,0 c 0.91666,-0.36988 2.41666,-0.36988 3.33333,0 0.91667,0.36988 0.16667,0.67252 -1.66667,0.67252 -1.83333,0 -2.58333,-0.30264 -1.66666,-0.67252 z m 82.75,-8.02777 c 0.96249,-0.38516 2.11251,-0.3378 2.55556,0.1052 0.44305,0.44305 -0.34445,0.75818 -1.75,0.70029 -1.55327,-0.064 -1.8692,-0.37992 -0.80556,-0.80555 z m -61.33334,-4 c 0.9625,-0.38516 2.11251,-0.3378 2.55556,0.1052 0.44306,0.44305 -0.34445,0.75818 -1.75,0.70029 -1.55326,-0.064 -1.8692,-0.37992 -0.80556,-0.80555 z m -184,-1.33334 c 0.96249,-0.38516 2.11249,-0.3378 2.55556,0.1052 0.44305,0.44306 -0.34446,0.75819 -1.75,0.7003 -1.55327,-0.064 -1.8692,-0.37992 -0.80556,-0.80555 z m -34.05796,-8.01317 c 1.29729,-0.33805 3.09729,-0.31583 4,0.0495 0.9027,0.36524 -0.15871,0.64182 -2.35871,0.61465 -2.2,-0.0272 -2.93859,-0.326 -1.64129,-0.66405 z M 384.96675,595.005 c 0,-1.83334 0.30264,-2.58334 0.67252,-1.66667 0.36988,0.91667 0.36988,2.41667 0,3.33333 -0.36988,0.91667 -0.67252,0.16667 -0.67252,-1.66666 z m 66.28607,0.33333 c -1.65849,-2.11475 -1.61133,-2.16191 0.50342,-0.50341 2.221,1.74182 2.9273,2.83674 1.82992,2.83674 -0.27687,0 -1.32687,-1.05 -2.33334,-2.33333 z M 108.42289,575.45529 c 0.91667,-0.36988 2.41667,-0.36988 3.33333,0 0.91667,0.36988 0.16667,0.67252 -1.66666,0.67252 -1.83334,0 -2.58334,-0.30264 -1.66667,-0.67252 z m -9.250001,-2.69444 c 0.962501,-0.38516 2.112501,-0.3378 2.555561,0.1052 0.44305,0.44305 -0.34445,0.75819 -1.750005,0.70029 -1.553257,-0.064 -1.8692,-0.37992 -0.805556,-0.80554 z M 383.1729,559.42751 c 0.96249,-0.38516 2.11251,-0.3378 2.55556,0.1052 0.44305,0.44306 -0.34445,0.75819 -1.75,0.7003 -1.55327,-0.064 -1.8692,-0.37992 -0.80556,-0.80555 z M 281.18299,525.67166 c 0,-4.76667 0.242,-6.71667 0.53777,-4.33333 0.29576,2.38333 0.29576,6.28333 0,8.66666 -0.29577,2.38334 -0.53777,0.43334 -0.53777,-4.33333 z m 25.44656,-17.66667 -2.53999,-3 3,2.53999 c 2.81926,2.38696 3.60699,3.46001 2.53999,3.46001 -0.25301,0 -1.60301,-1.35 -3,-3 z m 192.89862,-39.11111 c 0.064,-1.55326 0.37992,-1.8692 0.80555,-0.80556 0.38516,0.9625 0.3378,2.11251 -0.1052,2.55556 -0.44306,0.44306 -0.75819,-0.34445 -0.7003,-1.75 z m 1.5374,-19.22222 c 0,-2.56667 0.2744,-3.61667 0.60977,-2.33334 0.33536,1.28334 0.33536,3.38334 0,4.66667 -0.33537,1.28333 -0.60977,0.23333 -0.60977,-2.33333 z M 260.8615,419.56055 c 0.064,-1.55327 0.37992,-1.8692 0.80554,-0.80556 0.38516,0.96249 0.3378,2.11251 -0.1052,2.55556 -0.44306,0.44305 -0.75818,-0.34445 -0.70029,-1.75 z M 399.78161,188.74766 c 1.29729,-0.33805 3.09729,-0.31582 4,0.0495 0.9027,0.36524 -0.15871,0.64183 -2.35871,0.61465 -2.2,-0.0272 -2.93859,-0.326 -1.64129,-0.66405 z m 15.47121,-77.40935 c -1.65849,-2.11474 -1.61133,-2.1619 0.50341,-0.5034 2.221,1.74182 2.92731,2.83674 1.82992,2.83674 -0.27686,0 -1.32686,-1.05 -2.33333,-2.33334 z m -74.23666,-3.66666 c 0.0272,-2.2 0.326,-2.93859 0.66406,-1.6413 0.33805,1.29729 0.31582,3.09729 -0.0495,4 -0.36517,0.90271 -0.64176,-0.1587 -0.61459,-2.3587 z m -12.15466,-0.11111 c 0.064,-1.55326 0.37992,-1.8692 0.80554,-0.80556 0.38516,0.9625 0.3378,2.1125 -0.1052,2.55556 -0.44305,0.44305 -0.75818,-0.34445 -0.70029,-1.75 z m 64,-10.666668 c 0.064,-1.553258 0.37992,-1.8692 0.80555,-0.805556 0.38516,0.9625 0.3378,2.1125 -0.1052,2.555556 -0.44306,0.443055 -0.75819,-0.344445 -0.7003,-1.75 z m -52,-8 c 0.064,-1.553258 0.37992,-1.869201 0.80554,-0.805556 0.38516,0.9625 0.3378,2.1125 -0.1052,2.555556 -0.44305,0.443054 -0.75818,-0.344446 -0.70029,-1.75 z"
         id="path30" />
      <path
         style="fill:#606060;fill-opacity:1;stroke-width:1.33333"
         d="m 352.50623,623.42752 c 0.96249,-0.38516 2.11251,-0.3378 2.55556,0.1052 0.44306,0.44305 -0.34445,0.75818 -1.75,0.70029 -1.55327,-0.064 -1.8692,-0.37992 -0.80556,-0.80555 z M 91.781599,616.74768 c 1.297289,-0.33806 3.097289,-0.31583 4,0.0495 0.902709,0.36524 -0.15871,0.64183 -2.35871,0.61466 -2.2,-0.0272 -2.938581,-0.326 -1.64129,-0.66406 z m 352.000011,-1.33334 c 1.29729,-0.33805 3.09729,-0.31582 4,0.0495 0.9027,0.36524 -0.15871,0.64183 -2.35871,0.61465 -2.2,-0.0272 -2.93859,-0.326 -1.64129,-0.66405 z m -266.66668,-1.33333 c 1.2973,-0.33805 3.0973,-0.31583 4,0.0495 0.90271,0.36524 -0.1587,0.64182 -2.3587,0.61465 -2.2,-0.0272 -2.93859,-0.326 -1.6413,-0.66405 z m 283.47123,-10.74268 c -1.6585,-2.11475 -1.61134,-2.16191 0.50341,-0.50341 1.28333,1.00646 2.33333,2.05646 2.33333,2.33333 0,1.09739 -1.09492,0.39108 -2.83674,-1.82992 z m -349.41327,-6.57748 c 0.9625,-0.38516 2.1125,-0.3378 2.55556,0.1052 0.44305,0.44305 -0.34445,0.75819 -1.75,0.70029 -1.55326,-0.064 -1.8692,-0.37992 -0.80556,-0.80554 z m 273.79386,-7.08919 c 0,-1.83333 0.30264,-2.58333 0.67252,-1.66666 0.36988,0.91666 0.36988,2.41666 0,3.33333 -0.36988,0.91667 -0.67252,0.16667 -0.67252,-1.66667 z M 244.75623,575.83492 c 0,-0.27687 1.05,-1.32687 2.33333,-2.33334 2.11475,-1.65849 2.16191,-1.61133 0.50341,0.50342 -1.74182,2.221 -2.83674,2.9273 -2.83674,1.82992 z m 142.33334,-16.37963 c 0.91666,-0.36988 2.41666,-0.36988 3.33333,0 0.91667,0.36988 0.16667,0.67252 -1.66667,0.67252 -1.83333,0 -2.58333,-0.30264 -1.66666,-0.67252 z M 263.52816,424.89388 c 0.064,-1.55326 0.37992,-1.8692 0.80555,-0.80556 0.38516,0.9625 0.3378,2.11251 -0.1052,2.55556 -0.44307,0.44306 -0.75819,-0.34445 -0.70029,-1.75 z m -13.33333,-8 c 0.064,-1.55326 0.37992,-1.8692 0.80554,-0.80556 0.38516,0.9625 0.3378,2.11251 -0.1052,2.55556 -0.44306,0.44306 -0.75818,-0.34445 -0.70029,-1.75 z m 175.64474,-70.79971 c 0.96249,-0.38516 2.1125,-0.3378 2.55556,0.1052 0.44305,0.44306 -0.34446,0.75819 -1.75,0.7003 -1.55327,-0.064 -1.8692,-0.37992 -0.80556,-0.80555 z m 18.66666,0 c 0.9625,-0.38516 2.11251,-0.3378 2.55556,0.1052 0.44306,0.44306 -0.34445,0.75819 -1.75,0.7003 -1.55326,-0.064 -1.8692,-0.37992 -0.80556,-0.80555 z m 82.91667,-43.5926 c 0,-0.27686 1.05,-1.32686 2.33334,-2.33333 2.11474,-1.65849 2.1619,-1.61133 0.50341,0.50341 -1.74183,2.221 -2.83675,2.92731 -2.83675,1.82992 z m -148,-201.35394 c 0,-0.28821 0.93116,-0.88134 2.06925,-1.318061 1.18656,-0.455328 1.72176,-0.231798 1.25464,0.524011 -0.78301,1.26694 -3.32389,1.87393 -3.32389,0.79405 z m 21.4386,-6.920429 c 0.064,-1.553257 0.37992,-1.8692 0.80555,-0.805556 0.38516,0.9625 0.3378,2.1125 -0.1052,2.555556 -0.44306,0.443055 -0.75819,-0.344445 -0.7003,-1.75 z m -36.10527,-7.300912 c 0,-0.776612 0.6,-1.041203 1.33334,-0.587978 0.73333,0.453226 1.33333,1.088635 1.33333,1.412023 0,0.323388 -0.6,0.587978 -1.33333,0.587978 -0.73334,0 -1.33334,-0.635411 -1.33334,-1.412023 z"
         id="path28" />
      <path
         style="fill:#494949;fill-opacity:1;stroke-width:1.33333"
         d="m 116.08956,629.58086 c -2.17155,-0.8592 -1.86209,-1.0725 1.66666,-1.14881 4.50634,-0.0975 5.52687,0.50688 2.66667,1.57912 -0.91667,0.34364 -2.86667,0.15 -4.33333,-0.43031 z m 9.75,0.51332 c 0.96249,-0.38516 2.11249,-0.3378 2.55556,0.1052 0.44305,0.44306 -0.34446,0.75819 -1.75,0.7003 -1.55327,-0.064 -1.8692,-0.37992 -0.80556,-0.80555 z m -18.75,-11.97222 c 0.91666,-0.36988 2.41666,-0.36988 3.33333,0 0.91667,0.36988 0.16667,0.67252 -1.66667,0.67252 -1.83333,0 -2.58333,-0.30264 -1.66666,-0.67252 z m 73.41667,-1.36111 c 0.96249,-0.38516 2.11249,-0.3378 2.55556,0.1052 0.44305,0.44305 -0.34446,0.75819 -1.75,0.70029 -1.55327,-0.064 -1.8692,-0.37992 -0.80556,-0.80554 z M 90.089556,595.005 c 0,-0.73334 0.63541,-1.33334 1.412022,-1.33334 0.776613,0 1.041203,0.6 0.587978,1.33334 -0.453225,0.73333 -1.088635,1.33333 -1.412023,1.33333 -0.323388,0 -0.587977,-0.6 -0.587977,-1.33333 z m 58.565744,-2.33334 -3.23241,-3.66666 3.66667,3.23241 c 3.42705,3.02119 4.27812,4.10092 3.23241,4.10092 -0.23883,0 -1.88883,-1.65 -3.66667,-3.66667 z M 385.09247,577.005 c 0.0148,-2.93334 0.28786,-3.97634 0.60678,-2.31779 0.31892,1.65855 0.30681,4.05855 -0.0269,5.33333 -0.33372,1.27479 -0.59466,-0.0823 -0.57986,-3.01554 z m -99.66957,-3.33334 c 1.32732,-1.46666 2.7133,-2.66666 3.07997,-2.66666 0.36667,0 -0.41932,1.2 -1.74664,2.66666 -1.32732,1.46667 -2.71331,2.66667 -3.07997,2.66667 -0.36667,0 0.41932,-1.2 1.74664,-2.66667 z m -179.65113,-0.94301 c 1.65855,-0.31892 4.05855,-0.30681 5.33333,0.0269 1.27479,0.33372 -0.0822,0.59467 -3.01554,0.57987 -2.93334,-0.0148 -3.97634,-0.28785 -2.31779,-0.60677 z m 148.9939,-43.04172 c -0.46712,-0.75582 0.0681,-0.97934 1.25464,-0.52402 2.30989,0.88639 2.73252,1.84208 0.81461,1.84208 -0.69005,0 -1.62123,-0.59313 -2.06925,-1.31806 z m 14.09583,-19.45971 c 0.064,-1.55327 0.37992,-1.8692 0.80554,-0.80556 0.38516,0.96249 0.3378,2.11251 -0.1052,2.55556 -0.44306,0.44305 -0.75818,-0.34445 -0.70029,-1.75 z m -15.89475,-12.55556 c 0,-1.83333 0.30264,-2.58333 0.67252,-1.66667 0.36988,0.91667 0.36988,2.41667 0,3.33334 -0.36988,0.91666 -0.67252,0.16666 -0.67252,-1.66667 z m 248.04942,-39.33334 c 0.0272,-2.2 0.326,-2.93858 0.66405,-1.64129 0.33806,1.29729 0.31583,3.09729 -0.0495,4 -0.36524,0.90271 -0.64183,-0.15871 -0.61466,-2.35871 z m -242.61727,-6 c 0,-2.56666 0.2744,-3.61666 0.60977,-2.33333 0.33536,1.28333 0.33536,3.38333 0,4.66667 -0.33537,1.28333 -0.60977,0.23333 -0.60977,-2.33334 z m 242.4626,-11.44444 c 0.064,-1.55326 0.37992,-1.8692 0.80555,-0.80556 0.38516,0.9625 0.3378,2.11251 -0.1052,2.55556 -0.44305,0.44306 -0.75819,-0.34445 -0.70029,-1.75 z m -87.02193,-96.13304 c 0.96249,-0.38516 2.1125,-0.3378 2.55556,0.1052 0.44305,0.44305 -0.34446,0.75819 -1.75,0.70029 -1.55327,-0.064 -1.8692,-0.37992 -0.80556,-0.80554 z m 64.07992,-137.42252 c -1.65849,-2.11475 -1.61133,-2.16191 0.50341,-0.50342 1.28334,1.00647 2.33334,2.05647 2.33334,2.33334 0,1.09738 -1.09492,0.39108 -2.83675,-1.82992 z m -10.39132,-9.11111 c 0.064,-1.55327 0.37992,-1.8692 0.80555,-0.80556 0.38516,0.96249 0.3378,2.11249 -0.1052,2.55556 -0.44306,0.44305 -0.75819,-0.34445 -0.7003,-1.75 z m -31.76903,-7.88889 c 0.0148,-2.93334 0.28785,-3.97634 0.60677,-2.31779 0.31892,1.65855 0.30682,4.05855 -0.0269,5.33333 -0.33372,1.27479 -0.59467,-0.0823 -0.57987,-3.01554 z m 2.54095,0.66666 c 0,-1.83333 0.30264,-2.58333 0.67252,-1.66666 0.36988,0.91666 0.36988,2.41666 0,3.33333 -0.36988,0.91667 -0.67252,0.16667 -0.67252,-1.66667 z m 5.38274,-6 c 0.0272,-2.2 0.326,-2.93859 0.66406,-1.64129 0.33805,1.29729 0.31582,3.09729 -0.0495,4 -0.36524,0.90271 -0.64183,-0.15871 -0.61465,-2.35871 z m -64.77581,-26.24397 c 0.38508,-0.62307 1.25868,-0.78767 1.94135,-0.36575 1.7445,1.07816 1.54808,1.49861 -0.70015,1.49861 -1.06775,0 -1.62628,-0.50978 -1.2412,-1.13286 z m 35.76533,-42.75603 -3.91612,-4.33333 4.33334,3.91612 c 4.03928,3.65037 4.9462,4.75054 3.91612,4.75054 -0.22947,0 -2.17947,-1.95 -4.33334,-4.33333 z m -89.7056,-5 c 0,-1.83333 0.30264,-2.58333 0.67252,-1.66667 0.36988,0.91667 0.36988,2.41667 0,3.33334 -0.36988,0.91666 -0.67252,0.16666 -0.67252,-1.66667 z m 69.22808,-26.111113 c 0.064,-1.553257 0.37992,-1.8692 0.80555,-0.805556 0.38516,0.9625 0.3378,2.1125 -0.1052,2.555556 -0.44305,0.443055 -0.75819,-0.344445 -0.70029,-1.75 z"
         id="path26" />
      <path
         style="fill:#333333;fill-opacity:1;stroke-width:1.33333"
         d="m 120.75622,629.66056 c 1.1,-0.70478 3.8,-1.29946 6,-1.32152 7.02891,-0.0705 20.56928,-3.8769 30.43012,-8.55434 7.93041,-3.76173 11.62569,-4.66768 21.56989,-5.28814 40.26794,-2.51254 78.71064,-17.93074 102.32861,-41.04092 l 7.78279,-7.61546 -6.11267,-12.17105 c -6.96898,-13.87608 -9.32474,-14.90752 -12.17524,-5.3308 -2.30052,7.72904 -11.80952,20.33657 -21.21671,28.13027 -7.72945,6.40372 -26.72721,17.04745 -36.75857,20.59446 -8.88365,3.14119 -35.34121,8.6086 -41.65821,8.6086 -6.3715,0 -8.82047,-1.44821 -20.70406,-12.24348 -12.57047,-11.41924 -24.92899,-16.57086 -45.48595,-18.96074 -2.56666,-0.2984 1.11327,-0.42484 8.17762,-0.281 11.72354,0.2387 13.6311,0.66088 21.86144,4.83838 4.95942,2.51727 12.81776,8.02112 17.46294,12.23078 9.97656,9.04117 14.79298,11.75972 20.76513,11.72054 5.29161,-0.0347 24.33621,-4.14821 36.26874,-7.8338 24.10552,-7.44542 46.40564,-24.75813 55.49959,-43.08709 2.18051,-4.39482 3.96455,-8.5998 3.96455,-9.3444 0,-0.7446 -1.71344,-3.30532 -3.80764,-5.69048 -3.08687,-3.51575 -4.26619,-4.08007 -6.22989,-2.98112 -1.91778,1.07324 -2.96522,0.69014 -5.02921,-1.83935 -2.3821,-2.91933 -2.51844,-4.40244 -1.58073,-17.19491 1.40791,-19.20708 1.41123,-19.14966 -1.8886,-32.66666 -3.79747,-15.55551 -5.14717,-47.70758 -2.89172,-68.88502 3.06912,-28.81731 13.71798,-86.7828 23.22984,-126.44832 4.57166,-19.06427 6.84071,-28.74143 18.758,-80.00001 9.67083,-41.59608 20.07656,-69.97739 31.47674,-85.85186 4.15926,-5.79167 4.3241,-6.5226 4.69924,-20.83787 0.77714,-29.656948 6.89004,-54.643607 13.36832,-54.643607 3.15846,0 10.01354,6.988622 13.57588,13.840349 5.30924,10.211674 12.31977,26.36247 12.31977,28.382162 0,4.207295 2.51142,1.284284 3.34154,-3.889176 2.75718,-17.183366 15.2262,-43.651309 21.091,-44.76982 6.30993,-1.203402 10.09638,8.620397 13.50869,35.047772 1.13232,8.769541 2.05877,18.550131 2.05877,21.734644 0,4.966896 0.71082,6.457676 5,10.486416 2.75,2.58301 6.39366,5.65002 8.097,6.81559 4.64468,3.17825 18.96048,22.05492 29.70795,39.1726 24.3051,38.71116 33.15356,51.75747 36.66359,54.05734 1.62589,1.06532 10.06061,3.38154 18.74383,5.14716 29.451,5.98846 34.56694,8.70202 41.86845,22.20762 4.45099,8.233 4.55839,8.79947 4.50626,23.76735 -0.0468,13.44665 -0.48059,16.34812 -3.52522,23.58068 -4.75353,11.29204 -11.63028,21.30462 -21.28127,30.98559 -9.11572,9.14404 -29.33194,22.28864 -38.44725,24.99841 -14.84879,4.41422 -15.69889,5.66839 -9.76307,14.40375 6.06367,8.92349 17.21266,32.7924 20.8782,44.69824 5.22588,16.97387 8.88771,36.4557 8.86176,47.14678 -0.0599,24.64805 -5.27149,50.25881 -13.57672,66.71753 -4.77262,9.45804 -10.11566,16.44599 -22.67849,29.66026 -4.98025,5.2385 -9.05501,10.16574 -9.05501,10.94941 0,0.78367 -3.6,8.87347 -8,17.97732 -4.40001,9.10386 -7.99777,17.67663 -7.99503,19.05059 0.003,1.42675 3.29086,5.166 7.66667,8.7188 16.70813,13.56568 19.74786,18.54523 12.90822,21.14565 -7.25785,2.75944 -41.40568,0.31444 -64.33371,-4.60632 -5.3646,-1.15134 -10.93001,-2.09334 -12.36757,-2.09334 -2.46515,0 -2.49809,0.22362 -0.57949,3.93378 4.56704,8.83168 1.40932,10.95235 -17.57288,11.80166 -16.81976,0.75256 -35.78214,-1.53168 -49.39093,-5.94971 -19.75858,-6.41451 -20.2561,-6.90933 -23.03017,-22.90564 -1.85029,-10.66955 -6.29448,-25.1768 -8.04393,-26.25801 -0.73322,-0.45316 -4.70991,2.26228 -8.8371,6.03429 -14.36921,13.13264 -33.37615,23.95259 -53.75743,30.60209 -9.8709,3.22044 -33.21308,7.49322 -48,8.78638 -7.03748,0.61545 -12.96252,2.19286 -20,5.32454 -11.59947,5.16179 -18.38935,6.86367 -31.33333,7.8537 -6.22071,0.4758 -8.66635,0.28653 -7.33334,-0.56752 z m 259.94795,-6.17848 c 5.8573,-1.17147 6.447,-3.88079 1.89193,-8.69239 -4.63855,-4.89977 -19.58593,-15.78469 -21.67585,-15.78469 -1.93914,0 -1.91614,-0.78624 0.76066,-26 1.95143,-18.38129 2.44756,-20.70682 3.58534,-16.80577 l 1.32049,4.52758 18.08475,-0.90687 c 9.94661,-0.49877 20.18474,-1.2184 22.75141,-1.59917 3.93677,-0.58403 4.27879,-0.44938 2.18672,0.86093 -1.36397,0.85428 -7.05779,2.26104 -12.65292,3.12615 l -10.17296,1.5729 -0.93692,5.27879 c -1.14955,6.47686 -1.34145,29.54112 -0.27876,33.50295 0.87639,3.26721 4.57303,4.98455 15.18817,7.05588 36.2304,7.06967 64.00001,8.59739 64.00001,3.52091 0,-4.24524 -21.48257,-21.54063 -25.05353,-20.17034 -2.58316,0.99126 -1.58646,-1.50173 9.83558,-24.60116 5.52456,-11.17263 9.73928,-20.61924 9.36603,-20.99248 -0.37324,-0.37324 -2.50926,-0.0404 -4.74668,0.73951 -2.23744,0.77997 -4.06807,1.20201 -4.06807,0.93786 0,-0.26414 3.80496,-3.19544 8.45547,-6.51397 10.39125,-7.41504 23.21942,-21.67679 29.5128,-32.81089 10.2383,-18.11343 15.78928,-49.25353 13.00701,-72.96737 -1.79151,-15.26944 -5.79989,-32.95901 -10.6664,-47.07229 -3.96492,-11.49861 -17.35476,-39.11824 -21.31845,-43.9742 -2.57028,-3.14888 -2.96646,-3.22191 -9.17171,-1.69055 -16.14048,3.98321 -49.46759,2.07581 -65.15206,-3.72881 -14.46542,-5.35348 -28.19302,-14.52536 -39.84325,-26.62063 -13.13008,-13.63167 -18.47931,-21.48096 -27.38627,-40.18576 -6.32351,-13.27951 -14.21212,-38.15828 -13.12932,-41.40668 0.26617,-0.79854 1.53195,2.38258 2.81283,7.06913 4.49118,16.43256 14.65446,38.03857 25.28656,53.75644 2.93988,4.34616 10.80094,13.41036 17.46901,20.14268 10.40206,10.50227 13.93902,13.12347 24.90608,18.45758 16.39956,7.97633 27.7433,10.31457 49.95758,10.29754 27.23477,-0.0208 45.96056,-5.18116 69.60835,-19.18208 15.3451,-9.08522 25.92092,-19.84648 34.39313,-34.99621 6.1042,-10.91534 8.8638,-25.282 7.16307,-37.29142 -2.02643,-14.3091 -6.07352,-21.33966 -15.45874,-26.85469 -7.07686,-4.15857 -10.74434,-5.24097 -31.11236,-9.18235 -16.5342,-3.1995 -16.71021,-3.27248 -22.14572,-9.18092 l -5.47905,-5.95578 -1.50944,5.03804 c -2.07385,6.92192 -5.67001,9.7604 -13.18561,10.40749 -12.09741,1.04159 -20.34685,-8.73384 -20.34685,-24.11061 0,-10.88703 4.60756,-18.53439 12.16745,-20.19482 2.1079,-0.46297 3.8024,-1.24411 3.76553,-1.73584 -0.0369,-0.49172 -3.48688,-6.25623 -7.66667,-12.81001 -8.90412,-13.96132 -12.74948,-16.14434 -19.59964,-11.12672 l -4,2.92993 2.15996,-3.27293 c 1.18797,-1.80011 4.00425,-3.80187 6.2584,-4.44835 l 4.09845,-1.17543 -5.59173,-7.9728 c -7.06937,-10.07964 -17.59923,-19.78748 -25.48219,-23.49291 -5.91905,-2.78228 -8.03622,-5.52483 -4.265,-5.52483 1.01452,0 2.16506,-1.65 2.55676,-3.666671 0.94464,-4.863446 -2.50578,-36.43 -4.97689,-45.531627 -3.47044,-12.78241 -6.23244,-12.598639 -13.07483,0.869936 -5.43434,10.697004 -9.52469,22.02806 -11.57341,32.060651 -2.23199,10.930018 -1.99387,12.253624 2.22381,12.36142 2.01667,0.05155 4.86667,0.579809 6.33334,1.173925 2.2599,0.91544 1.91122,1.227496 -2.28583,2.045766 -5.42916,1.05848 -8.10333,3.38799 -7.462,6.50024 0.22797,1.10632 -0.16731,2.09245 -0.87839,2.19141 -0.71108,0.099 -3.15742,-5.7117 -5.43632,-12.912567 -4.80706,-15.189456 -13.46032,-34.230084 -18.6462,-41.029129 -3.91249,-5.129532 -7.82869,-6.093988 -9.73184,-2.396694 -3.24101,6.296391 -6.59269,36.12353 -6.81243,60.62482 -0.0627,6.98695 -0.47972,8.8049 -1.89534,8.26167 -2.13628,-0.81977 -8.41492,8.44594 -13.47254,19.88209 -4.4459,10.053 -16.31714,45.15459 -17.88996,52.89809 -0.67026,3.3 -3.39485,15 -6.05464,26 -2.65977,11 -6.63536,28.1 -8.83462,38 -2.19928,9.9 -5.463,24.00001 -7.25272,31.33334 -1.78972,7.33333 -4.52099,19.93333 -6.0695,28 -1.54849,8.06667 -3.96514,20.18635 -5.37033,26.93263 -6.97004,33.46289 -11.93783,69.93097 -12.0039,88.11941 -0.0833,22.9534 2.89184,51.37938 5.54955,53.02193 0.66752,0.41254 1.21367,-0.10787 1.21367,-1.15638 0,-4.76681 4.1894,-58.79516 5.36375,-69.17327 1.4422,-12.74521 4.54737,-28.76656 5.82253,-30.0417 1.26205,-1.26206 1.02453,1.57394 -1.81161,21.63072 -1.45176,10.26666 -3.56259,32.46666 -4.69072,49.33333 -1.13882,17.02631 -3.22365,36.30074 -4.68717,43.33334 -4.31377,20.72885 -3.10254,35.79502 2.29419,28.53704 1.45279,-1.95383 1.67735,-4.95247 0.9769,-13.04435 -0.65715,-7.59152 -0.49676,-10.2522 0.57796,-9.58797 0.81813,0.50562 1.49462,3.43392 1.50333,6.5073 0.0173,6.13703 2.66507,17.29851 5.24864,22.12596 2.35605,4.40234 4.58837,1.6687 2.69787,-3.30373 -0.80856,-2.12667 -1.70224,-8.97437 -1.98598,-15.21712 -0.49058,-10.79443 -0.45114,-10.99121 0.80522,-4.01713 2.54972,14.15354 5.85116,24.62361 7.88805,25.01588 1.67589,0.32274 1.99704,-1.96868 1.99704,-14.24898 0,-9.94712 0.53499,-15.16856 1.67053,-16.3041 1.33848,-1.33848 1.50015,1.11409 0.81335,12.3389 -0.83837,13.70211 0.2564,19.86496 3.52879,19.86496 2.10052,0 4.84942,-6.78854 7.28878,-18 2.69951,-12.40708 5.31499,-19.33333 7.30066,-19.33333 0.77265,0 3.54994,2.37439 6.17174,5.2764 5.20079,5.75665 9.3757,7.77405 11.5625,5.58725 0.97945,-0.97945 0.28045,-4.47429 -2.32208,-11.60998 -3.3274,-9.12316 -3.63904,-11.36314 -2.93071,-21.06454 0.43593,-5.97069 3.29947,-20.4558 6.36339,-32.18913 3.06392,-11.73334 6.6696,-26.29698 8.01262,-32.36366 2.18366,-9.86394 5.06214,-17.83552 5.16472,-14.30301 0.11707,4.02955 -4.47396,25.56173 -9.84013,46.15127 -7.87624,30.22035 -8.82276,40.3794 -4.86911,52.26013 3.81907,11.47628 3.36856,16.10784 -1.62254,16.68111 -2.79894,0.32148 -4.8738,-0.74047 -8.46667,-4.33333 -2.61755,-2.61755 -5.31204,-4.75918 -5.98776,-4.75918 -1.78637,0 -3.40675,4.47188 -6.51281,17.97391 -3.06734,13.33368 -5.48024,18.02609 -9.26924,18.02609 -2.31888,0 -2.1184,0.93236 2.21913,10.32038 6.53216,14.13802 10.42935,26.0228 13.79873,42.0804 1.56944,7.47957 3.49711,14.38389 4.28368,15.34293 2.79663,3.40978 22.1867,9.53863 38.3091,12.10883 8.92781,1.42325 31.40503,1.7998 37.28127,0.62455 z m 14.72588,-388.14583 c -9.69592,-4.85109 -15.19047,-24.5432 -9.75779,-34.97136 5.11569,-9.81972 16.60159,-13.4161 25.50709,-7.98659 8.79676,5.36322 14.30384,24.09022 10.14259,34.49022 -3.79551,9.4859 -15.92697,13.4534 -25.89189,8.46773 z m 15.86432,-2.01759 c 6.24524,-3.20956 10.92616,-13.9395 8.01669,-18.37648 -1.09435,-1.66889 -1.4472,-1.63825 -2.54763,0.22128 -4.30948,7.28227 -17.13781,5.1768 -20.72185,-3.401 -2.31501,-5.5406 -2.49523,-10.58446 -0.51065,-14.29266 2.0259,-3.78544 0.4379,-4.70552 -2.90303,-1.68202 -4.4878,4.06142 -6.53833,9.24784 -6.53833,16.53744 0,16.02419 13.30713,27.10788 25.2048,20.99344 z m -47.07919,-63.64701 c 1.44253,-5.87312 4.38921,-9.16607 9.45348,-10.56438 6.90775,-1.90732 6.9344,-0.91148 0.0647,2.41414 -3.59168,1.7387 -6.69391,4.48392 -8.08282,7.15262 -1.77673,3.41391 -2.08064,3.62515 -1.43526,0.99762 z M 338.27956,92.004978 c -0.23514,-22.342595 0.96659,-29.089665 3.85104,-21.621488 3.05616,7.912749 6.59026,23.723 7.24283,32.40176 0.76375,10.15728 -0.32872,7.62721 -4.07911,-9.446938 -1.24836,-5.683334 -2.78012,-10.333334 -3.40392,-10.333334 -0.6238,0 -1.13417,6.9 -1.13417,15.333334 0,8.433338 -0.50595,15.333338 -1.12432,15.333338 -0.61837,0 -1.22692,-9.75 -1.35235,-21.666672 z m 51.35943,-11 c 1.06291,-32.258135 3.41527,-29.435445 5.00024,6 0.53727,12.011667 0.44946,12.868111 -0.6183,6.030286 -1.8184,-11.644879 -2.07119,-11.693155 -3.64954,-0.696952 -1.26125,8.787128 -1.35008,7.412545 -0.7324,-11.333334 z m -7.84396,506.301742 c 0.44923,-21.32427 -0.15642,-22.96839 -8.46089,-22.96839 -3.9128,0 -6.24409,0.64929 -6.71231,1.86946 -1.4341,3.73722 -4.17673,26.83861 -3.36561,28.34887 1.37969,2.56896 14.0184,10.89055 16.16668,10.64448 1.64443,-0.18834 2.06616,-3.36976 2.37213,-17.89442 z m 81.51083,-378.63507 c 4.20715,-3.93021 6.22543,-10.45208 4.20732,-13.59545 -1.03313,-1.60919 -1.6403,-1.44416 -3.6643,0.99598 -3.86304,4.65731 -9.91936,5.14744 -14.53598,1.17639 -3.32683,-2.86161 -3.97404,-4.53832 -4.55087,-11.78983 l -0.67246,-8.45376 -2.62079,3.87133 c -3.96255,5.85335 -3.41603,16.11542 1.23233,23.13957 5.78862,8.74717 14.19238,10.64605 20.60475,4.65577 z M 101.42289,623.68744 c -3.666667,-0.9948 -8.466667,-2.55616 -10.666668,-3.46968 -3.884366,-1.61292 -3.73019,-1.692 5.333334,-2.73511 16.734614,-1.92596 20.666664,-2.625 20.666664,-3.67408 0,-0.56817 -3.69029,-2.05903 -8.20064,-3.31303 -13.974688,-3.8853 -22.466024,-10.0334 -22.466024,-16.26636 0,-2.05921 1.248858,-2.19666 12.666667,-1.39408 13.324767,0.93664 16.128897,-0.10026 7.529307,-2.78418 -8.836971,-2.75802 -20.401665,-7.28468 -19.897884,-7.78846 1.071207,-1.07121 16.409964,3.8129 29.969174,9.54264 7.91967,3.34664 15.83262,6.65248 17.58432,7.34632 5.9843,2.37032 1.83218,2.62898 -8.01576,0.49932 -5.4097,-1.16986 -15.4722,-3.00737 -22.36111,-4.08333 -11.393465,-1.77951 -15.10417,-1.74743 -13.242238,0.11453 0.784232,0.78423 16.792858,4.8781 28.434188,7.27143 4.4,0.90459 9.2,2.17716 10.66667,2.82792 4.47853,1.98715 -9.43775,-0.0405 -24.53313,-3.57472 -7.626553,-1.78552 -14.133102,-2.97976 -14.458996,-2.65387 -0.877018,0.87702 12.737206,6.77763 19.658796,8.52042 3.3,0.8309 9.45,2.17304 13.66666,2.98252 13.15014,2.52445 10.10551,4.25568 -11.77505,6.6955 -7.27283,0.81096 -13.473694,1.72486 -13.779694,2.03086 -1.372057,1.37205 1.690716,1.94378 14.664894,2.73749 12.7258,0.77852 21.95697,-0.13528 29.89283,-2.95912 1.97836,-0.70396 2.29898,-0.54977 1.24618,0.59925 -2.07546,2.26519 -18.66961,5.47583 -27.91582,5.40118 -4.4,-0.0356 -11,-0.87854 -14.66667,-1.87334 z m 26.15229,-35.63764 c -6.14956,-2.99216 -15.74956,-6.49688 -21.33333,-7.78826 -7.505667,-1.73585 -8.93573,-2.37098 -5.48563,-2.43632 4.98173,-0.0943 14.94303,1.81755 19.33334,3.71066 1.46666,0.63244 5.11177,2.16553 8.10025,3.40689 5.50771,2.2878 14.34712,8.66877 11.89975,8.59016 -0.73334,-0.0236 -6.3648,-2.49096 -12.51438,-5.48313 z"
         id="path24" />
    </g>
  </g>
</svg>
